<?xml version="1.0"?>
<svg xmlns="http://www.w3.org/2000/svg" height="512px" viewBox="1 -22 511.999 511" width="512px"><g><path d="m66.390625 124.769531c6.628906 0 13.257813-2.71875 13.257813-8.160156v-43.859375h25.671874c5.609376 0 7.988282-5.441406 7.988282-10.03125 0-5.4375-2.886719-10.371094-7.988282-10.371094h-25.671874v-28.726562h44.03125c5.097656 0 7.988281-5.441406 7.988281-11.730469 0-5.441406-2.378907-11.390625-7.988281-11.390625h-58.992188c-5.777344 0-11.558594 2.71875-11.558594 8.160156v107.949219c0 5.441406 6.628906 8.160156 13.261719 8.160156zm0 0" data-original="#000000" class="active-path" data-old_color="#000000" fill="#1669A3"/><path d="m170.941406 124.769531c6.628906 0 13.261719-2.71875 13.261719-8.160156v-40.96875h11.21875l23.289063 45.21875c1.871093 3.570313 5.101562 4.929687 8.5 4.929687 7.820312 0 16.660156-7.136718 16.660156-13.769531 0-.851562-.167969-2.039062-.851563-3.058593l-20.738281-37.570313c11.898438-4.589844 20.570312-15.472656 20.570312-34.511719 0-27.710937-18.53125-36.378906-41.820312-36.378906h-35.191406c-4.929688 0-8.160156 3.738281-8.160156 7.988281v108.121094c0 5.441406 6.632812 8.160156 13.261718 8.160156zm13.261719-101.148437h16.828125c9.519531 0 15.300781 3.910156 15.300781 15.808594 0 11.902343-5.78125 15.8125-15.300781 15.8125h-16.828125zm0 0" data-original="#000000" class="active-path" data-old_color="#000000" fill="#1669A3"/><path d="m285.523438 124.769531h60.519531c5.609375 0 7.992187-5.949219 7.992187-11.390625 0-6.289062-2.890625-11.730468-7.992187-11.730468h-45.558594v-28.898438h25.5c5.609375 0 7.988281-5.441406 7.988281-10.03125 0-5.4375-2.890625-10.371094-7.988281-10.371094h-25.5v-28.726562h45.558594c5.101562 0 7.992187-5.441406 7.992187-11.730469 0-5.441406-2.382812-11.390625-7.992187-11.390625h-60.519531c-5.78125 0-11.5625 2.71875-11.5625 8.160156v107.949219c0 5.441406 5.78125 8.160156 11.5625 8.160156zm0 0" data-original="#000000" class="active-path" data-old_color="#000000" fill="#1669A3"/><path d="m394.152344 124.769531h60.523437c5.609375 0 7.988281-5.949219 7.988281-11.390625 0-6.289062-2.890624-11.730468-7.988281-11.730468h-45.5625v-28.898438h25.5c5.609375 0 7.988281-5.441406 7.988281-10.03125 0-5.4375-2.890624-10.371094-7.988281-10.371094h-25.5v-28.726562h45.5625c5.097657 0 7.988281-5.441406 7.988281-11.730469 0-5.441406-2.378906-11.390625-7.988281-11.390625h-60.523437c-5.78125 0-11.558594 2.71875-11.558594 8.160156v107.949219c-.003906 5.441406 5.777344 8.160156 11.558594 8.160156zm0 0" data-original="#000000" class="active-path" data-old_color="#000000" fill="#1669A3"/><path d="m185.070312 435.9375c0-17.425781-14.070312-31.554688-31.425781-31.554688-17.359375 0-31.429687 14.128907-31.429687 31.554688 0 17.429688 14.070312 31.558594 31.429687 31.558594 17.355469 0 31.425781-14.128906 31.425781-31.558594zm0 0" data-original="#000000" class="active-path" data-old_color="#000000" fill="#1669A3"/><path d="m457.738281 435.9375c0-17.425781-14.070312-31.554688-31.429687-31.554688-17.355469 0-31.425782 14.128907-31.425782 31.554688 0 17.429688 14.070313 31.558594 31.425782 31.558594 17.359375 0 31.429687-14.128906 31.429687-31.558594zm0 0" data-original="#000000" class="active-path" data-old_color="#000000" fill="#1669A3"/><path d="m476.265625 290.386719-38.71875-15.847657-32.664063-72.960937c-4.945312-11.042969-15.945312-18.179687-28.023437-18.179687h-288.867187c-8.285157 0-15 6.71875-15 15v28.875h15c8.285156 0 15 6.71875 15 15 0 8.285156-6.714844 15-15 15h-15v30.003906h52c8.285156 0 15 6.714844 15 15 0 8.28125-6.714844 15-15 15h-52v30h15c8.285156 0 15 6.714844 15 15s-6.714844 15-15 15h-15v30.546875c0 8.285156 6.714843 15 15 15h5.640624c6.015626-27.660157 30.628907-48.441407 60.011719-48.441407 29.378907 0 53.992188 20.78125 60.011719 48.441407h152.640625c6.019531-27.660157 30.632813-48.441407 60.011719-48.441407 29.382812 0 53.996094 20.78125 60.011718 48.441407h10.679688c8.28125 0 15-6.714844 15-15v-64.109375c0-23.511719-14.027344-44.445313-35.734375-53.328125zm-143.902344.4375c-8.285156 0-15-6.714844-15-15v-65.996094h59.496094c.269531 0 35.761719 78.878906 35.761719 78.878906.332031.742188.734375 1.445313 1.179687 2.117188zm0 0" data-original="#000000" class="active-path" data-old_color="#000000" fill="#1669A3"/><path d="m46.992188 347.277344c-8.285157 0-15 6.714844-15 15s6.714843 15 15 15h26v-30zm0 0" data-original="#000000" class="active-path" data-old_color="#000000" fill="#1669A3"/><path d="m46.992188 287.277344c-8.285157 0-15 6.714844-15 15 0 8.28125 6.714843 15 15 15h26v-30zm0 0" data-original="#000000" class="active-path" data-old_color="#000000" fill="#1669A3"/><path d="m15 227.273438c-8.285156 0-15 6.71875-15 15 0 8.285156 6.714844 15 15 15h57.992188v-30zm0 0" data-original="#000000" class="active-path" data-old_color="#000000" fill="#1669A3"/></g> </svg>
