<svg id="Layer_5" enable-background="new 0 0 64 64" height="512" viewBox="0 0 64 64" width="512" xmlns="http://www.w3.org/2000/svg"><g><g><g><path d="m31 34-5.2 4h-15.8v-16h22 22v16h-15.8l-5.2-4z" fill="#ecc19c"/></g><g><path d="m22 12c0 5.52 4.48 10 10 10h-22-4v-1l16.12-10.55c-.08.5-.12 1.02-.12 1.55z" fill="#cf9e76"/></g><g><path d="m58 21v1h-4-22c5.52 0 10-4.48 10-10 0-.53-.04-1.05-.12-1.55z" fill="#cf9e76"/></g><g><path d="m25.8 38-7.8 6h-14-1c-.55 0-1-.45-1-1v-4c0-.55.45-1 1-1h7z" fill="#ccd1d9"/></g><g><path d="m62 39v4c0 .55-.45 1-1 1h-1-14l-7.8-6h15.8 7c.55 0 1 .45 1 1z" fill="#ccd1d9"/></g><g><path d="m18 46h2v16h-16v-18h14z" fill="#e6e9ed"/></g><g><path d="m46 46v-2h14v18h-16v-16z" fill="#e6e9ed"/></g><g><path d="m8 48h8v10h-8z" fill="#aab2bd"/></g><g><path d="m48 48h8v10h-8z" fill="#aab2bd"/></g><g><path d="m46 44v2h-2-3l-9-7.59-9 7.59h-3-2v-2l7.8-6 5.2-4h2l5.2 4z" fill="#a0d468"/></g><g><path d="m41 46h-1-16-1l9-7.59z" fill="#b4dd7f"/></g><g><path d="m24 46v16h-4v-16h3z" fill="#ccd1d9"/></g><g><path d="m41 46h3v16h-4v-16z" fill="#ccd1d9"/></g><g><path d="m24 46h16v16h-16z" fill="#e6e9ed"/></g><g><path d="m36 54v8h-8v-8c0-2.21 1.79-4 4-4 1.1 0 2.1.45 2.83 1.17.72.73 1.17 1.73 1.17 2.83z" fill="#aab2bd"/></g><g><path d="m14 26h6v8h-6z" fill="#69d6f4"/></g><g><path d="m24 26h6v8h-6z" fill="#69d6f4"/></g><g><path d="m34 26h6v8h-6z" fill="#69d6f4"/></g><g><path d="m44 26h6v8h-6z" fill="#69d6f4"/></g><g><path d="m41.88 10.45c.08.5.12 1.02.12 1.55 0 5.52-4.48 10-10 10s-10-4.48-10-10c0-.53.04-1.05.12-1.55h.01c.74-4.79 4.88-8.45 9.87-8.45s9.13 3.66 9.87 8.45z" fill="#fcd770"/></g></g><g><path d="m31 19h2v-2c1.654 0 3-1.346 3-3s-1.346-3-3-3h-2c-.552 0-1-.449-1-1s.448-1 1-1h3v1h2v-3h-3v-2h-2v2c-1.654 0-3 1.346-3 3s1.346 3 3 3h2c.552 0 1 .449 1 1s-.448 1-1 1h-3v-1h-2v3h3z"/><path d="m61 37h-6v-14h4v-2.541l-16.213-10.6c-.999-5.044-5.454-8.859-10.787-8.859s-9.788 3.815-10.787 8.859l-16.213 10.6v2.541h4v14h-6c-1.103 0-2 .897-2 2v4c0 1.103.897 2 2 2v18h58v-18c1.103 0 2-.897 2-2v-4c0-1.103-.897-2-2-2zm-22.695-16c2.738-1.924 4.555-5.061 4.676-8.626l13.192 8.626zm-6.305-18c4.963 0 9 4.038 9 9s-4.037 9-9 9-9-4.038-9-9 4.037-9 9-9zm-10.981 9.374c.121 3.565 1.938 6.702 4.676 8.626h-17.868zm-10.019 10.626h42v14h-14.46l-2.6-2h5.06v-10h-8v8h-2v-8h-8v10h5.06l-2.6 2h-14.46zm24 38h-6v-7c0-1.654 1.346-3 3-3s3 1.346 3 3zm-3-12c-2.757 0-5 2.243-5 5v7h-2v-14h14v14h-2v-7c0-2.757-2.243-5-5-5zm-9-2v14h-2v-14zm2.737-2 6.263-5.281 6.263 5.281zm15.263 2h2v14h-2zm.365-2-9.365-7.897-9.365 7.897h-3.635v-.508l12.34-9.492h1.32l12.34 9.492v.508zm-12.365-12h-4v-6h4zm6 0v-6h4v6zm-32 6h19.86l-5.2 4h-14.66zm2 6h12v2h2v14h-14zm54 16h-14v-14h2v-2h12zm2-18h-14.66l-5.2-4h19.86z"/><path d="m51 25h-8v10h8zm-2 8h-4v-6h4z"/><path d="m13 35h8v-10h-8zm2-8h4v6h-4z"/><path d="m57 59v-12h-10v12zm-8-10h6v8h-6z"/><path d="m7 59h10v-12h-10zm2-10h6v8h-6z"/></g></g></svg>